<?xml version="1.0" encoding="UTF-8"?>
<svg version="1.1" xmlns="http://www.w3.org/2000/svg" width="96" height="96">
<path d="M0 0 C0.75087891 -0.020625 1.50175781 -0.04125 2.27539062 -0.0625 C6.85535448 -0.0947249 9.90679278 0.19804842 13.5625 3.25 C17.56747979 7.79713862 17.00852259 13.01295309 16.9375 18.75 C16.94910156 19.68714844 16.96070313 20.62429687 16.97265625 21.58984375 C16.95144792 26.57380189 16.92108406 30.27646393 13.5625 34.25 C10.50440325 36.28873117 9.81499853 36.5006973 6.359375 36.55859375 C5.54339844 36.58373047 4.72742187 36.60886719 3.88671875 36.63476562 C2.18626757 36.66960036 0.48574027 36.70091728 -1.21484375 36.72851562 C-7.45702447 36.92940213 -12.53768579 37.59532473 -17.33203125 41.984375 C-18.88351914 45.16410283 -18.96205882 47.98047053 -19.125 51.5 C-19.19074219 52.76328125 -19.25648437 54.0265625 -19.32421875 55.328125 C-19.36160156 56.29234375 -19.39898438 57.2565625 -19.4375 58.25 C-21.51903935 58.38536022 -23.60311206 58.48215465 -25.6875 58.5625 C-26.84765625 58.62050781 -28.0078125 58.67851563 -29.203125 58.73828125 C-32.4375 58.25 -32.4375 58.25 -34.734375 56.10546875 C-39.42393278 48.24293037 -39.86136053 38.70414151 -37.90234375 29.82421875 C-36.49604353 26.23546354 -34.747483 24.13346639 -31.4375 22.25 C-28.81604506 21.99369711 -26.44223833 21.8993057 -23.828125 21.95703125 C-23.10131531 21.96127609 -22.37450562 21.96552094 -21.62567139 21.96989441 C-19.31256496 21.9866387 -17.00034145 22.02428115 -14.6875 22.0625 C-13.11589803 22.07755242 -11.54428236 22.09123985 -9.97265625 22.10351562 C-6.12726585 22.13652805 -2.28253244 22.18827944 1.5625 22.25 C1.5625 20.93 1.5625 19.61 1.5625 18.25 C-4.3775 18.25 -10.3175 18.25 -16.4375 18.25 C-16.93111559 5.90961022 -16.93111559 5.90961022 -14.671875 2.890625 C-10.2531712 -0.35387779 -5.30952326 0.03627343 0 0 Z M-11.4375 9.25 C-11.4375 10.57 -11.4375 11.89 -11.4375 13.25 C-10.1175 13.25 -8.7975 13.25 -7.4375 13.25 C-7.4375 11.93 -7.4375 10.61 -7.4375 9.25 C-8.7575 9.25 -10.0775 9.25 -11.4375 9.25 Z " fill="#0176BC" transform="translate(47.4375,9.75)"/>
<path d="M0 0 C10.77855689 -0.92829677 10.77855689 -0.92829677 15.125 2.375 C19.72780296 9.70857039 19.57854311 18.77087362 18 27 C16.40386435 31.25636174 14.93758329 33.72401812 11 36 C7.60839844 36.34057617 7.60839844 36.34057617 3.609375 36.29296875 C2.90476135 36.28872391 2.20014771 36.28447906 1.47418213 36.28010559 C-0.76760712 36.26336538 -3.00848431 36.22572404 -5.25 36.1875 C-6.77342448 36.17244704 -8.29686311 36.1587597 -9.8203125 36.14648438 C-13.54716941 36.11347791 -17.27349563 36.06172854 -21 36 C-21 37.32 -21 38.64 -21 40 C-15.06 40 -9.12 40 -3 40 C-2.69230769 51.53846154 -2.69230769 51.53846154 -5 55 C-10.03507357 58.19563493 -14.22608823 58.48990349 -20 58.4375 C-21.17175781 58.4674707 -21.17175781 58.4674707 -22.3671875 58.49804688 C-27.70165362 58.49355658 -30.77986134 57.54096009 -35 54 C-37.10756206 49.78487588 -36.31804681 44.31882995 -36.375 39.6875 C-36.41238281 38.54603516 -36.44976562 37.40457031 -36.48828125 36.22851562 C-36.57519591 27.96679394 -36.57519591 27.96679394 -34.06640625 23.75 C-29.84397405 21.34025525 -26.35017336 21.2940717 -21.5625 21.3125 C-13.59321277 21.27493381 -13.59321277 21.27493381 -6 19 C-1.88407728 14.66159497 -0.91843527 11.15242825 -0.4375 5.3125 C-0.35371094 4.31863281 -0.26992187 3.32476563 -0.18359375 2.30078125 C-0.09271484 1.16189453 -0.09271484 1.16189453 0 0 Z M-13 45 C-13 46.32 -13 47.64 -13 49 C-11.68 49 -10.36 49 -9 49 C-9 47.68 -9 46.36 -9 45 C-10.32 45 -11.64 45 -13 45 Z " fill="#FFC106" transform="translate(67,28)"/>
</svg>
