<?xml version="1.0" encoding="UTF-8"?>
<svg version="1.1" xmlns="http://www.w3.org/2000/svg" width="80" height="80">
<path d="M0 0 C2.2315991 0.86910917 4.17164595 1.87539156 6.2109375 3.125 C8.26694793 4.29290056 8.26694793 4.29290056 12 4 C13.82841827 3.14075658 13.82841827 3.14075658 15.625 2 C20.33540816 -0.45645585 24.77362385 -1.0686233 30 0 C32.82424288 2.19022918 34.41508603 3.83017207 36 7 C36.0716735 9.55157655 36.09308442 12.07472971 36.0625 14.625 C36.05798828 15.33140625 36.05347656 16.0378125 36.04882812 16.765625 C36.03703875 18.51045275 36.01910324 20.255237 36 22 C36.74894531 22.11601562 37.49789062 22.23203125 38.26953125 22.3515625 C40.9856307 22.99658755 42.47158142 23.73173454 44.6875 25.375 C45.26886719 25.79523437 45.85023437 26.21546875 46.44921875 26.6484375 C48.69671094 28.60720903 49.89547541 30.35084731 50.37109375 33.3046875 C50.5500978 40.23319701 50.5500978 40.23319701 47.9375 43.875 C39.47058824 50 39.47058824 50 36 50 C36.04640625 51.01320312 36.0928125 52.02640625 36.140625 53.0703125 C36.17816758 54.42184532 36.21456506 55.77341028 36.25 57.125 C36.28351563 57.79015625 36.31703125 58.4553125 36.3515625 59.140625 C36.45212173 64.26914595 35.22723319 67.0675566 32 71 C28.2847223 72.85763885 24.05375759 72.45634406 20 72 C17.7684009 71.13089083 15.82835405 70.12460844 13.7890625 68.875 C11.73305207 67.70709944 11.73305207 67.70709944 8 68 C6.17158173 68.85924342 6.17158173 68.85924342 4.375 70 C-0.33540816 72.45645585 -4.77362385 73.0686233 -10 72 C-12.82424288 69.80977082 -14.41508603 68.16982793 -16 65 C-16.0716735 62.44842345 -16.09308442 59.92527029 -16.0625 57.375 C-16.05798828 56.66859375 -16.05347656 55.9621875 -16.04882812 55.234375 C-16.03703875 53.48954725 -16.01910324 51.744763 -16 50 C-16.92296875 49.70996094 -17.8459375 49.41992188 -18.796875 49.12109375 C-23.66912953 47.41580466 -27.12384712 45.31422931 -30 41 C-30.54621049 37.60774539 -30.5276882 34.39461273 -30 31 C-27.875 28.125 -27.875 28.125 -25 26 C-23.96875 25.236875 -22.9375 24.47375 -21.875 23.6875 C-19 22 -19 22 -16 22 C-16.04640625 20.98679687 -16.0928125 19.97359375 -16.140625 18.9296875 C-16.17816758 17.57815468 -16.21456506 16.22658972 -16.25 14.875 C-16.30027344 13.87726562 -16.30027344 13.87726562 -16.3515625 12.859375 C-16.45212173 7.73085405 -15.22723319 4.9324434 -12 1 C-8.2847223 -0.85763885 -4.05375759 -0.45634406 0 0 Z M-8 7 C-8.36402369 8.43503555 -8.71586591 9.87316506 -9.0625 11.3125 C-9.25972656 12.11300781 -9.45695312 12.91351563 -9.66015625 13.73828125 C-10.19885554 16.15957179 -10.19885554 16.15957179 -9 19 C-3.15508882 19.15799008 -3.15508882 19.15799008 1.7109375 16.375 C3.24544054 14.24110881 3.24544054 14.24110881 5 11 C0.38987758 8.04952165 -2.36529617 6.4502728 -8 7 Z M15 11 C17.63009499 16.04809242 17.63009499 16.04809242 22.3359375 18.6875 C24.57451466 18.91347624 26.75107018 19.0342974 29 19 C30.02375082 14.59787148 30.08258987 12.04948031 28 8 C26.98006704 6.78116612 26.98006704 6.78116612 24.875 6.6875 C20.84246717 7.12581879 18.42487029 8.85106178 15 11 Z M2 26 C-0.20278761 28.76732112 -1.77146729 31.68464461 -3 35 C-2.35330329 39.71164748 0.12467204 43.25336053 3 47 C7.06605797 48.35535266 10.75271786 48.65802963 15 48 C18.96538297 45.06906476 21.38342888 41.65952851 23 37 C22.12268646 32.32099446 19.88032058 28.753145 17 25 C11.85789009 23.28596336 6.62382337 22.98935638 2 26 Z M34 28 C31.23406909 34.14789787 31.23406909 34.14789787 32.3125 40.5625 C33.1478125 41.7690625 33.1478125 41.7690625 34 43 C38.83256305 42.58578031 40.82679218 40.53586014 44 37 C43.34928072 34.07176325 42.65065146 32.41562022 40.0859375 30.77734375 C38.07869072 29.78790585 36.0657943 28.85994693 34 28 Z M-20.6875 32 C-21.62142578 32.8353125 -21.62142578 32.8353125 -22.57421875 33.6875 C-23.04472656 34.120625 -23.51523437 34.55375 -24 35 C-23.34928072 37.92823675 -22.65065146 39.58437978 -20.0859375 41.22265625 C-18.07869072 42.21209415 -16.0657943 43.14005307 -14 44 C-11.23406909 37.85210213 -11.23406909 37.85210213 -12.3125 31.4375 C-12.869375 30.633125 -13.42625 29.82875 -14 29 C-17.58912412 29 -18.10857029 29.66436554 -20.6875 32 Z M-9 52 C-9.92221976 56.70332076 -10.27536232 59.70209339 -8 64 C-7.67 64.33 -7.34 64.66 -7 65 C-1.70602769 64.69457852 1.13397287 63.63172245 5 60 C2.10582746 55.7054214 0.33845705 53.72993716 -4.8125 52.625 C-6.20465411 52.39335282 -7.59983914 52.17692664 -9 52 Z M28 52 C22.63060362 52.69896859 22.63060362 52.69896859 18.35546875 55.69140625 C17.15382963 57.40556004 16.06721256 59.19907881 15 61 C20.55111258 64.69410263 20.55111258 64.69410263 27 65 C29.81870287 62.18129713 29.7303841 59.90943055 30 56 C29.19420215 53.6284995 29.19420215 53.6284995 28 52 Z " fill="#83AFE8" transform="translate(30,4)"/>
<path d="M0 0 C2.2315991 0.86910917 4.17164595 1.87539156 6.2109375 3.125 C8.26694793 4.29290056 8.26694793 4.29290056 12 4 C13.82841827 3.14075658 13.82841827 3.14075658 15.625 2 C20.33540816 -0.45645585 24.77362385 -1.0686233 30 0 C32.82424288 2.19022918 34.41508603 3.83017207 36 7 C36.0716735 9.55157655 36.09308442 12.07472971 36.0625 14.625 C36.05798828 15.33140625 36.05347656 16.0378125 36.04882812 16.765625 C36.03703875 18.51045275 36.01910324 20.255237 36 22 C36.74894531 22.11601562 37.49789062 22.23203125 38.26953125 22.3515625 C40.9856307 22.99658755 42.47158142 23.73173454 44.6875 25.375 C45.26886719 25.79523437 45.85023437 26.21546875 46.44921875 26.6484375 C48.69671094 28.60720903 49.89547541 30.35084731 50.37109375 33.3046875 C50.5500978 40.23319701 50.5500978 40.23319701 47.9375 43.875 C39.47058824 50 39.47058824 50 36 50 C36.04640625 51.01320312 36.0928125 52.02640625 36.140625 53.0703125 C36.17816758 54.42184532 36.21456506 55.77341028 36.25 57.125 C36.28351563 57.79015625 36.31703125 58.4553125 36.3515625 59.140625 C36.45212173 64.26914595 35.22723319 67.0675566 32 71 C28.2847223 72.85763885 24.05375759 72.45634406 20 72 C17.7684009 71.13089083 15.82835405 70.12460844 13.7890625 68.875 C11.73305207 67.70709944 11.73305207 67.70709944 8 68 C6.17158173 68.85924342 6.17158173 68.85924342 4.375 70 C-0.33540816 72.45645585 -4.77362385 73.0686233 -10 72 C-12.82424288 69.80977082 -14.41508603 68.16982793 -16 65 C-16.0716735 62.44842345 -16.09308442 59.92527029 -16.0625 57.375 C-16.05798828 56.66859375 -16.05347656 55.9621875 -16.04882812 55.234375 C-16.03703875 53.48954725 -16.01910324 51.744763 -16 50 C-16.92296875 49.70996094 -17.8459375 49.41992188 -18.796875 49.12109375 C-23.66912953 47.41580466 -27.12384712 45.31422931 -30 41 C-30.54621049 37.60774539 -30.5276882 34.39461273 -30 31 C-27.875 28.125 -27.875 28.125 -25 26 C-23.96875 25.236875 -22.9375 24.47375 -21.875 23.6875 C-19 22 -19 22 -16 22 C-16.04640625 20.98679687 -16.0928125 19.97359375 -16.140625 18.9296875 C-16.17816758 17.57815468 -16.21456506 16.22658972 -16.25 14.875 C-16.30027344 13.87726562 -16.30027344 13.87726562 -16.3515625 12.859375 C-16.45212173 7.73085405 -15.22723319 4.9324434 -12 1 C-8.2847223 -0.85763885 -4.05375759 -0.45634406 0 0 Z M-13 6 C-14.07957377 9.23872132 -14.13326784 11.66028205 -14.125 15.0625 C-14.12757812 16.12597656 -14.13015625 17.18945312 -14.1328125 18.28515625 C-14.18438455 20.96704384 -14.18438455 20.96704384 -13 23 C-13.825 23.20625 -14.65 23.4125 -15.5 23.625 C-19.97719096 25.38389645 -23.64539293 27.51820404 -27 31 C-28.2986206 34.89586181 -28.5774558 36.78847509 -26.8046875 40.5078125 C-24.76874864 43.31934712 -22.93956773 44.60145404 -19.9375 46.3125 C-18.62072266 47.08013672 -18.62072266 47.08013672 -17.27734375 47.86328125 C-15.12596783 49.14886654 -15.12596783 49.14886654 -13 49 C-13.33 49.66 -13.66 50.32 -14 51 C-14.8337293 59.18511852 -14.8337293 59.18511852 -12.125 66.6875 C-9.54683645 69.49314857 -8.70055191 69.89992116 -4.9375 70.4375 C-0.14744036 69.90527115 2.08838872 68.16068696 5.7890625 65.21484375 C8 64 8 64 10.53125 64.15625 C13.02839958 65.00970619 14.75063718 66.01550549 16.875 67.5625 C20.73572104 70.05633675 23.33974996 70.87929246 28 70 C31.15954305 67.45862841 32.71540886 65.85377341 34 62 C34.06937062 59.77181559 34.08457084 57.54165476 34.0625 55.3125 C34.05347656 54.13300781 34.04445312 52.95351563 34.03515625 51.73828125 C34.02355469 50.83464844 34.01195312 49.93101563 34 49 C34.68707031 48.67386719 35.37414062 48.34773438 36.08203125 48.01171875 C36.98308594 47.57472656 37.88414063 47.13773438 38.8125 46.6875 C39.70582031 46.25824219 40.59914063 45.82898437 41.51953125 45.38671875 C43.84389605 44.08727071 45.3660444 43.08381046 47 41 C48.35600858 35.49622826 48.35600858 35.49622826 46.6875 30.3125 C42.81106396 26.97696201 38.64347281 25.13844142 34 23 C34 18.38 34 13.76 34 9 C33.67 9 33.34 9 33 9 C32.66127487 10.41538717 32.32925376 11.83237963 32 13.25 C31.7215625 14.43335938 31.7215625 14.43335938 31.4375 15.640625 C30.87845172 18.25556002 30.87845172 18.25556002 31 22 C30.2575 21.7525 30.2575 21.7525 29.5 21.5 C25.96555911 20.79311182 22.60309299 20.93994845 19 21 C19 20.34 19 19.68 19 19 C18.01 19.33 17.02 19.66 16 20 C14.16341803 19.93914939 12.32856723 19.80687362 10.5 19.625 C9.5409375 19.53476562 8.581875 19.44453125 7.59375 19.3515625 C5 19 5 19 2 18 C1.34 18.66 0.68 19.32 0 20 C-2.6015625 20.4140625 -2.6015625 20.4140625 -5.625 20.625 C-6.62789062 20.69976563 -7.63078125 20.77453125 -8.6640625 20.8515625 C-9.82035156 20.92503906 -9.82035156 20.92503906 -11 21 C-11.37302695 10.32728444 -11.37302695 10.32728444 -9 6 C-8.67 5.67 -8.34 5.34 -8 5 C-6.47480724 5.08937803 -4.95318071 5.24537146 -3.4375 5.4375 C-2.61121094 5.53933594 -1.78492187 5.64117187 -0.93359375 5.74609375 C-0.29550781 5.82988281 0.34257812 5.91367188 1 6 C1 5.01 1 4.02 1 3 C-4.45548323 0.27225839 -8.96611252 1.84746877 -13 6 Z M-8 7 C-8.36402369 8.43503555 -8.71586591 9.87316506 -9.0625 11.3125 C-9.25972656 12.11300781 -9.45695312 12.91351563 -9.66015625 13.73828125 C-10.19885554 16.15957179 -10.19885554 16.15957179 -9 19 C-3.15508882 19.15799008 -3.15508882 19.15799008 1.7109375 16.375 C3.24544054 14.24110881 3.24544054 14.24110881 5 11 C0.38987758 8.04952165 -2.36529617 6.4502728 -8 7 Z M15 11 C17.63009499 16.04809242 17.63009499 16.04809242 22.3359375 18.6875 C24.57451466 18.91347624 26.75107018 19.0342974 29 19 C30.02375082 14.59787148 30.08258987 12.04948031 28 8 C26.98006704 6.78116612 26.98006704 6.78116612 24.875 6.6875 C20.84246717 7.12581879 18.42487029 8.85106178 15 11 Z " fill="#4E79B7" transform="translate(30,4)"/>
<path d="M0 0 C0.73347656 -0.020625 1.46695313 -0.04125 2.22265625 -0.0625 C7.68732975 -0.10231547 7.68732975 -0.10231547 10.0078125 1.765625 C10.37648437 2.25546875 10.74515625 2.7453125 11.125 3.25 C11.785 3.25 12.445 3.25 13.125 3.25 C14.445 5.56 15.765 7.87 17.125 10.25 C17.455 9.59 17.785 8.93 18.125 8.25 C19.115 8.25 20.105 8.25 21.125 8.25 C21.455 6.6 21.785 4.95 22.125 3.25 C27.98758862 4.92502532 32.67975199 7.08212798 36.125 12.25 C36.04375512 16.06850915 35.66469507 17.71030493 32.9375 20.4375 C26.53118845 24.56601189 19.9118741 27.72193176 12.125 27.25 C12.125 26.59 12.125 25.93 12.125 25.25 C11.63257813 25.73855469 11.14015625 26.22710937 10.6328125 26.73046875 C7.15594433 28.83716924 3.9386746 28.65057412 0 28.5625 C-1.09248047 28.56733398 -1.09248047 28.56733398 -2.20703125 28.57226562 C-7.60763889 28.51736111 -7.60763889 28.51736111 -9.875 26.25 C-9.875 30.2059792 -8.55253127 30.99086549 -5.875 33.8125 C-1.875 38.04166667 -1.875 38.04166667 -1.875 40.25 C-6.66873422 44.34252309 -11.58753495 46.45958217 -17.875 46.25 C-20.375 44.5625 -20.375 44.5625 -21.875 41.25 C-22.18853144 37.22634648 -22.10617971 33.27637999 -21.875 29.25 C-20.225 28.59 -18.575 27.93 -16.875 27.25 C-17.865 26.92 -18.855 26.59 -19.875 26.25 C-20.5625 24.1875 -20.5625 24.1875 -20.875 22.25 C-21.205 23.24 -21.535 24.23 -21.875 25.25 C-27.73758862 23.57497468 -32.42975199 21.41787202 -35.875 16.25 C-35.79375512 12.43149085 -35.41469507 10.78969507 -32.6875 8.0625 C-25.21982759 3.25 -25.21982759 3.25 -21.875 3.25 C-21.545 3.91 -21.215 4.57 -20.875 5.25 C-20.545 4.26 -20.215 3.27 -19.875 2.25 C-18.41682203 2.08197949 -16.9584516 1.91562857 -15.5 1.75 C-14.68789063 1.6571875 -13.87578125 1.564375 -13.0390625 1.46875 C-10.875 1.25 -10.875 1.25 -8.875 1.25 C-6.83274789 -0.79225211 -2.79584523 0.01944936 0 0 Z M-7.875 4.25 C-10.07778761 7.01732112 -11.64646729 9.93464461 -12.875 13.25 C-12.22830329 17.96164748 -9.75032796 21.50336053 -6.875 25.25 C-2.80894203 26.60535266 0.87771786 26.90802963 5.125 26.25 C9.09038297 23.31906476 11.50842888 19.90952851 13.125 15.25 C12.24768646 10.57099446 10.00532058 7.003145 7.125 3.25 C1.98289009 1.53596336 -3.25117663 1.23935638 -7.875 4.25 Z M24.125 6.25 C21.35906909 12.39789787 21.35906909 12.39789787 22.4375 18.8125 C23.2728125 20.0190625 23.2728125 20.0190625 24.125 21.25 C28.95756305 20.83578031 30.95179218 18.78586014 34.125 15.25 C33.47428072 12.32176325 32.77565146 10.66562022 30.2109375 9.02734375 C28.20369072 8.03790585 26.1907943 7.10994693 24.125 6.25 Z M-30.5625 10.25 C-31.49642578 11.0853125 -31.49642578 11.0853125 -32.44921875 11.9375 C-32.91972656 12.370625 -33.39023437 12.80375 -33.875 13.25 C-33.22428072 16.17823675 -32.52565146 17.83437978 -29.9609375 19.47265625 C-27.95369072 20.46209415 -25.9407943 21.39005307 -23.875 22.25 C-21.10906909 16.10210213 -21.10906909 16.10210213 -22.1875 9.6875 C-22.744375 8.883125 -23.30125 8.07875 -23.875 7.25 C-27.46412412 7.25 -27.98357029 7.91436554 -30.5625 10.25 Z M-18.875 30.25 C-19.79721976 34.95332076 -20.15036232 37.95209339 -17.875 42.25 C-17.545 42.58 -17.215 42.91 -16.875 43.25 C-11.58102769 42.94457852 -8.74102713 41.88172245 -4.875 38.25 C-7.76917254 33.9554214 -9.53654295 31.97993716 -14.6875 30.875 C-16.07965411 30.64335282 -17.47483914 30.42692664 -18.875 30.25 Z " fill="#81ADE6" transform="translate(39.875,25.75)"/>
<path d="M0 0 C2.9375 2.0625 2.9375 2.0625 5 5 C5.70257624 10.31950579 4.42832259 14.91160079 3 20 C-0.96 19.67 -4.92 19.34 -9 19 C-9 18.34 -9 17.68 -9 17 C-9.66 17 -10.32 17 -11 17 C-11.33 17.66 -11.66 18.32 -12 19 C-12.83144531 18.9278125 -13.66289063 18.855625 -14.51953125 18.78125 C-16.14955078 18.64203125 -16.14955078 18.64203125 -17.8125 18.5 C-19.43091797 18.36078125 -19.43091797 18.36078125 -21.08203125 18.21875 C-24.01090811 17.96262162 -24.01090811 17.96262162 -27 18 C-27.33 18.33 -27.66 18.66 -28 19 C-29.8267034 19.26013181 -31.66232907 19.45923072 -33.5 19.625 C-34.5003125 19.72039063 -35.500625 19.81578125 -36.53125 19.9140625 C-37.3459375 19.94242188 -38.160625 19.97078125 -39 20 C-40.63837345 18.36162655 -40.17085921 16.49983422 -40.1875 14.25 C-40.1369445 9.19444954 -39.67707191 5.67707191 -36 2 C-34.01853874 2.19175432 -32.03494484 2.38972385 -30.0703125 2.7109375 C-27.68813716 3.09218752 -27.68813716 3.09218752 -24 3 C-23.360625 3.515625 -22.72125 4.03125 -22.0625 4.5625 C-20.11135455 6.21442225 -20.11135455 6.21442225 -17.75 6 C-15.15252403 5.05546328 -13.39458635 3.97538573 -11.125 2.4375 C-7.26427896 -0.05633675 -4.66025004 -0.87929246 0 0 Z M-36 5 C-36.36402369 6.43503555 -36.71586591 7.87316506 -37.0625 9.3125 C-37.25972656 10.11300781 -37.45695312 10.91351563 -37.66015625 11.73828125 C-38.19885554 14.15957179 -38.19885554 14.15957179 -37 17 C-31.15508882 17.15799008 -31.15508882 17.15799008 -26.2890625 14.375 C-24.75455946 12.24110881 -24.75455946 12.24110881 -23 9 C-27.61012242 6.04952165 -30.36529617 4.4502728 -36 5 Z M-13 9 C-10.36990501 14.04809242 -10.36990501 14.04809242 -5.6640625 16.6875 C-3.42548534 16.91347624 -1.24892982 17.0342974 1 17 C2.02375082 12.59787148 2.08258987 10.04948031 0 6 C-1.01993296 4.78116612 -1.01993296 4.78116612 -3.125 4.6875 C-7.15753283 5.12581879 -9.57512971 6.85106178 -13 9 Z " fill="#83B0E9" transform="translate(58,6)"/>
<path d="M0 0 C0.66 0.33 1.32 0.66 2 1 C1.67 1.99 1.34 2.98 1 4 C-1.01822917 3.67447917 -3.03645833 3.34895833 -5.0546875 3.0234375 C-5.69664063 3.01570312 -6.33859375 3.00796875 -7 3 C-9.7343066 5.7343066 -9.95340665 7.76993555 -10.09765625 11.578125 C-10.08605469 12.45984375 -10.07445313 13.3415625 -10.0625 14.25 C-10.05347656 15.14203125 -10.04445313 16.0340625 -10.03515625 16.953125 C-10.02355469 17.62859375 -10.01195313 18.3040625 -10 19 C-8.20759337 18.88610125 -6.41605165 18.75852313 -4.625 18.625 C-3.12839844 18.52058594 -3.12839844 18.52058594 -1.6015625 18.4140625 C1.15508879 18.23636036 1.15508879 18.23636036 3 16 C3.99 16.33 4.98 16.66 6 17 C7.82841341 17.24782712 9.66298041 17.45216214 11.5 17.625 C12.93859375 17.76808594 12.93859375 17.76808594 14.40625 17.9140625 C17.11642431 18.15423044 17.11642431 18.15423044 20 17 C20 17.66 20 18.32 20 19 C21.32 19.33 22.64 19.66 24 20 C23.34 20 22.68 20 22 20 C22.495 21.485 22.495 21.485 23 23 C22.01 23.495 22.01 23.495 21 24 C20.34 23.01 19.68 22.02 19 21 C16.26503972 20.72323035 13.79133895 20.62749914 11.0625 20.6875 C9.96905273 20.68266602 9.96905273 20.68266602 8.85351562 20.67773438 C5.05463714 20.71603654 3.22749474 20.84833684 0 23 C0 22.34 0 21.68 0 21 C-2.97 21.33 -5.94 21.66 -9 22 C-9 23.65 -9 25.3 -9 27 C-9.66 25.68 -10.32 24.36 -11 23 C-12.79646436 23.92827339 -14.58703557 24.86795838 -16.375 25.8125 C-17.37273438 26.33457031 -18.37046875 26.85664062 -19.3984375 27.39453125 C-22.22876117 28.89164684 -22.22876117 28.89164684 -24 32 C-24.31150132 34.97676515 -24.31150132 34.97676515 -23 38 C-19.40521858 40.99701594 -15.17322584 42.93683217 -11 45 C-10.67 43.68 -10.34 42.36 -10 41 C-9.67 41 -9.34 41 -9 41 C-9 42.65 -9 44.3 -9 46 C-7.35 46.33 -5.7 46.66 -4 47 C-4 47.33 -4 47.66 -4 48 C-6.97 48.495 -6.97 48.495 -10 49 C-10.08133791 50.91595968 -10.13934367 52.83291932 -10.1875 54.75 C-10.22230469 55.81734375 -10.25710937 56.8846875 -10.29296875 57.984375 C-9.96642154 61.34563424 -9.3902194 62.65404393 -7 65 C-3.89802603 65.80946422 -3.89802603 65.80946422 -1 66 C-1.33 66.66 -1.66 67.32 -2 68 C-6.1889125 67.83888798 -8.34705265 67.61946287 -11.4375 64.6875 C-14.11834425 60.00175086 -13.47500921 54.20174015 -13 49 C-12.67 48.34 -12.34 47.68 -12 47 C-12.825 46.79375 -13.65 46.5875 -14.5 46.375 C-19.38686946 44.45515843 -24.66267394 42.06445568 -26.87109375 37.00390625 C-27.49163963 33.61969212 -27.18267236 31.35704142 -25.625 28.3125 C-22.0504234 25.16346823 -16.9651687 21 -12 21 C-12.33 20.34 -12.66 19.68 -13 19 C-13.14851844 17.06640414 -13.22130833 15.12657903 -13.25 13.1875 C-13.28867187 11.63095703 -13.28867187 11.63095703 -13.328125 10.04296875 C-12.95408344 6.57417855 -12.07568054 4.77889007 -10 2 C-6.33134759 -0.44576827 -4.32799657 -0.23607254 0 0 Z " fill="#84B0E9" transform="translate(29,6)"/>
<path d="M0 0 C0.66 0 1.32 0 2 0 C3.32 2.31 4.64 4.62 6 7 C6.33 6.34 6.66 5.68 7 5 C7.99 5 8.98 5 10 5 C10.33 3.35 10.66 1.7 11 0 C16.86258862 1.67502532 21.55475199 3.83212798 25 9 C24.91875512 12.81850915 24.53969507 14.46030493 21.8125 17.1875 C15.40618845 21.31601189 8.7868741 24.47193176 1 24 C1 23.34 1 22.68 1 22 C0.34 21.67 -0.32 21.34 -1 21 C-0.61585937 20.41992188 -0.23171875 19.83984375 0.1640625 19.2421875 C3.37529441 14.30324579 3.37529441 14.30324579 3.4375 8.625 C1.98805406 5.88796158 1.98805406 5.88796158 0 3 C0 2.01 0 1.02 0 0 Z M13 3 C10.23406909 9.14789787 10.23406909 9.14789787 11.3125 15.5625 C12.1478125 16.7690625 12.1478125 16.7690625 13 18 C17.83256305 17.58578031 19.82679218 15.53586014 23 12 C22.34928072 9.07176325 21.65065146 7.41562022 19.0859375 5.77734375 C17.07869072 4.78790585 15.0657943 3.85994693 13 3 Z " fill="#82AEE7" transform="translate(51,29)"/>
<path d="M0 0 C3.46623328 0.09422921 5.63917413 0.3189077 8.41552734 2.46533203 C9.99737616 4.8400975 11.1013943 6.99323411 12.09130859 9.66845703 C12.53345703 10.62880859 12.97560547 11.58916016 13.43115234 12.57861328 C14.3363935 16.8155704 13.08061716 18.39192349 10.77880859 21.98095703 C10.12267578 23.02896484 9.46654297 24.07697266 8.79052734 25.15673828 C7.09130859 27.66845703 7.09130859 27.66845703 6.09130859 28.66845703 C-7.7239288 30.3575172 -7.7239288 30.3575172 -12.23291016 26.87158203 C-13.81475897 24.49681656 -14.91877711 22.34367995 -15.90869141 19.66845703 C-16.35083984 18.70810547 -16.79298828 17.74775391 -17.24853516 16.75830078 C-18.15377631 12.52134366 -16.89799997 10.94499058 -14.59619141 7.35595703 C-13.94005859 6.30794922 -13.28392578 5.25994141 -12.60791016 4.18017578 C-9.36882763 -0.60770942 -5.42223461 0.10608461 0 0 Z M-9.90869141 4.66845703 C-12.11147902 7.43577816 -13.6801587 10.35310165 -14.90869141 13.66845703 C-14.26199469 18.38010451 -11.78401937 21.92181756 -8.90869141 25.66845703 C-4.84263344 27.02380969 -1.15597354 27.32648666 3.09130859 26.66845703 C7.05669156 23.7375218 9.47473748 20.32798554 11.09130859 15.66845703 C10.21399506 10.98945149 7.97162918 7.42160203 5.09130859 3.66845703 C-0.05080132 1.95442039 -5.28486803 1.65781341 -9.90869141 4.66845703 Z " fill="#4E79B7" transform="translate(41.90869140625,25.33154296875)"/>
<path d="M0 0 C2.5 1.5 2.5 1.5 4 4 C4.791013 8.02098277 4.62153384 10.96411027 2.5 14.5 C-1.03588973 16.62153384 -3.97901723 16.791013 -8 16 C-10.5 14.5 -10.5 14.5 -12 12 C-12.791013 7.97901723 -12.62153384 5.03588973 -10.5 1.5 C-6.96411027 -0.62153384 -4.02098277 -0.791013 0 0 Z " fill="#87B3ED" transform="translate(44,32)"/>
<path d="M0 0 C0.77223089 10.75975039 0.77223089 10.75975039 -2.0625 15.3125 C-5 17 -5 17 -8.3125 17.125 C-12.77257771 15.76429833 -16.20955535 13.66807922 -20 11 C-18.62282942 5.79735558 -15.36925216 2.87931889 -11 0 C-6.90684275 -1.22794717 -4.10596786 -0.89170009 0 0 Z M-4 1 C-9.36939638 1.69896859 -9.36939638 1.69896859 -13.64453125 4.69140625 C-14.84617037 6.40556004 -15.93278744 8.19907881 -17 10 C-11.44888742 13.69410263 -11.44888742 13.69410263 -5 14 C-2.18129713 11.18129713 -2.2696159 8.90943055 -2 5 C-2.80579785 2.6284995 -2.80579785 2.6284995 -4 1 Z " fill="#4F7AB7" transform="translate(62,55)"/>
<path d="M0 0 C4.54713765 0.11258388 7.64895643 0.29365721 11.28515625 3.19921875 C16.77734375 9.3311772 16.77734375 9.3311772 16.77734375 12.1953125 C11.98360953 16.28783559 7.0648088 18.40489467 0.77734375 18.1953125 C-1.72265625 16.5078125 -1.72265625 16.5078125 -3.22265625 13.1953125 C-3.58785685 9.16752039 -3.59946907 5.22288562 -3.22265625 1.1953125 C-2.22265625 0.1953125 -2.22265625 0.1953125 0 0 Z M-0.22265625 2.1953125 C-1.14487601 6.89863326 -1.49801857 9.89740589 0.77734375 14.1953125 C1.10734375 14.5253125 1.43734375 14.8553125 1.77734375 15.1953125 C7.07131606 14.88989102 9.91131662 13.82703495 13.77734375 10.1953125 C10.88317121 5.9007339 9.1158008 3.92524966 3.96484375 2.8203125 C2.57268964 2.58866532 1.17750461 2.37223914 -0.22265625 2.1953125 Z " fill="#517BB8" transform="translate(21.22265625,53.8046875)"/>
<path d="M0 0 C1.9375 1.5 1.9375 1.5 3 4 C3.43846289 8.50044929 3.2278369 12.64315937 2 17 C-8.32317068 17.42377548 -8.32317068 17.42377548 -12.35546875 14 C-17 8.02435567 -17 8.02435567 -17 5 C-11.72055015 0.80405897 -6.75971249 -2.48315969 0 0 Z M-14 6 C-11.36990501 11.04809242 -11.36990501 11.04809242 -6.6640625 13.6875 C-4.42548534 13.91347624 -2.24892982 14.0342974 0 14 C1.02375082 9.59787148 1.08258987 7.04948031 -1 3 C-2.01993296 1.78116612 -2.01993296 1.78116612 -4.125 1.6875 C-8.15753283 2.12581879 -10.57512971 3.85106178 -14 6 Z " fill="#517BB8" transform="translate(59,9)"/>
<path d="M0 0 C6.62157694 0.11416512 10.68605262 2.17000069 16 6 C14.60297761 10.74987611 12.22585691 14.38991191 8 17 C4.32798639 17.83361869 0.76300134 18.14744298 -3 18 C-4.63837345 16.36162655 -4.17085921 14.49983422 -4.1875 12.25 C-4.1369445 7.19444954 -3.67707191 3.67707191 0 0 Z M0 3 C-0.36402369 4.43503555 -0.71586591 5.87316506 -1.0625 7.3125 C-1.25972656 8.11300781 -1.45695312 8.91351563 -1.66015625 9.73828125 C-2.19885554 12.15957179 -2.19885554 12.15957179 -1 15 C4.84491118 15.15799008 4.84491118 15.15799008 9.7109375 12.375 C11.24544054 10.24110881 11.24544054 10.24110881 13 7 C8.38987758 4.04952165 5.63470383 2.4502728 0 3 Z " fill="#507CB8" transform="translate(22,8)"/>
<path d="M0 0 C3.66366215 8.20660323 3.19711592 13.47435754 0 22 C-5.86258862 20.32497468 -10.55475199 18.16787202 -14 13 C-13.91875512 9.18149085 -13.53969507 7.53969507 -10.8125 4.8125 C-3.34482759 0 -3.34482759 0 0 0 Z M-8.6875 7 C-9.62142578 7.8353125 -9.62142578 7.8353125 -10.57421875 8.6875 C-11.04472656 9.120625 -11.51523438 9.55375 -12 10 C-11.34928072 12.92823675 -10.65065146 14.58437978 -8.0859375 16.22265625 C-6.07869072 17.21209415 -4.0657943 18.14005307 -2 19 C0.76593091 12.85210213 0.76593091 12.85210213 -0.3125 6.4375 C-0.869375 5.633125 -1.42625 4.82875 -2 4 C-5.58912412 4 -6.10857029 4.66436554 -8.6875 7 Z " fill="#527CB6" transform="translate(18,29)"/>
<path d="M0 0 C5.86258862 1.67502532 10.55475199 3.83212798 14 9 C13.91875512 12.81850915 13.53969507 14.46030493 10.8125 17.1875 C3.34482759 22 3.34482759 22 0 22 C-3.2933632 13.79450185 -3.0686888 8.38774938 0 0 Z M2 3 C-0.76593091 9.14789787 -0.76593091 9.14789787 0.3125 15.5625 C1.1478125 16.7690625 1.1478125 16.7690625 2 18 C6.83256305 17.58578031 8.82679218 15.53586014 12 12 C11.34928072 9.07176325 10.65065146 7.41562022 8.0859375 5.77734375 C6.07869072 4.78790585 4.0657943 3.85994693 2 3 Z " fill="#517CB7" transform="translate(62,29)"/>
<path d="M0 0 C2.5 1.5 2.5 1.5 4 4 C4.791013 8.02098277 4.62153384 10.96411027 2.5 14.5 C-1.03588973 16.62153384 -3.97901723 16.791013 -8 16 C-10.5 14.5 -10.5 14.5 -12 12 C-12.791013 7.97901723 -12.62153384 5.03588973 -10.5 1.5 C-6.96411027 -0.62153384 -4.02098277 -0.791013 0 0 Z M-8.875 3.0625 C-10.68060316 6.17214989 -9.79952488 8.61739473 -9 12 C-8.34 12.66 -7.68 13.32 -7 14 C-3.47105052 13.91256309 -3.47105052 13.91256309 0 13 C2.14762184 9.77856724 2.561068 8.7404533 2 5 C-0.12791162 2.7144653 -1.47408328 2.07696342 -4.5625 1.625 C-6.99740467 1.8519741 -6.99740467 1.8519741 -8.875 3.0625 Z " fill="#4F7BB5" transform="translate(44,32)"/>
<path d="M0 0 C0.66 0.33 1.32 0.66 2 1 C2 3.625 2 3.625 1 7 C-2.68599422 10.66876995 -7.02276228 13.44461321 -12 15 C-12.33 17.64 -12.66 20.28 -13 23 C-13.33 23 -13.66 23 -14 23 C-14.1953125 20.94921875 -14.390625 18.8984375 -14.5859375 16.84765625 C-14.79089844 15.93306641 -14.79089844 15.93306641 -15 15 C-15.66 14.67 -16.32 14.34 -17 14 C-16.34 14 -15.68 14 -15 14 C-14.67 13.34 -14.34 12.68 -14 12 C-13.113125 11.71125 -12.22625 11.4225 -11.3125 11.125 C-7.61179216 9.86815583 -5.02700963 8.47664424 -2 6 C-0.57220726 2.89064982 -0.57220726 2.89064982 0 0 Z " fill="#83AFE8" transform="translate(76,38)"/>
<path d="M0 0 C3.96 0 7.92 0 12 0 C10.25 3 10.25 3 8 6 C6.68 6 5.36 6 4 6 C1.75 3 1.75 3 0 0 Z " fill="#527EB9" transform="translate(34,56)"/>
<path d="M0 0 C4.25183506 1.61276502 4.34879919 2.58133199 7 7 C3.04 7 -0.92 7 -5 7 C-1.125 1.125 -1.125 1.125 0 0 Z " fill="#517DB8" transform="translate(39,17)"/>
<path d="M0 0 C2.76223278 2.76223278 2.57856291 5.20706617 3 9 C0.36 9.33 -2.28 9.66 -5 10 C-3.66511872 6.40608886 -2.03977277 3.24509304 0 0 Z " fill="#537EB9" transform="translate(57,43)"/>
<path d="M0 0 C2.61724095 2.36797991 4.32861729 4.89600354 6 8 C6 8.66 6 9.32 6 10 C3.36 9.67 0.72 9.34 -2 9 C-1.51421457 5.87709365 -1.0013988 3.00419641 0 0 Z " fill="#527EB8" transform="translate(22,43)"/>
<path d="M0 0 C2.97 0.33 5.94 0.66 9 1 C8.34 3.97 7.68 6.94 7 10 C3.66442368 7.0094833 1.84916079 4.06815373 0 0 Z " fill="#517DB8" transform="translate(51,27)"/>
<path d="M0 0 C-2.475 4.455 -2.475 4.455 -5 9 C-5.66 9 -6.32 9 -7 9 C-8.25664978 6.09399739 -9 4.20395416 -9 1 C-5.72921858 0.03087958 -3.60964568 0 0 0 Z " fill="#507DB7" transform="translate(29,27)"/>
<path d="M0 0 C1.65 0 3.3 0 5 0 C5 0.66 5 1.32 5 2 C4.01 2.495 4.01 2.495 3 3 C2.53476937 4.89533342 2.53476937 4.89533342 2.375 7.0625 C2.189375 9.0115625 2.189375 9.0115625 2 11 C1.67 11 1.34 11 1 11 C0.8046875 8.94921875 0.609375 6.8984375 0.4140625 4.84765625 C0.27742188 4.23792969 0.14078125 3.62820312 0 3 C-0.66 2.67 -1.32 2.34 -2 2 C-1.34 2 -0.68 2 0 2 C0 1.34 0 0.68 0 0 Z " fill="#89B5EE" transform="translate(61,50)"/>
<path d="M0 0 C0.33 0 0.66 0 1 0 C1 3.96 1 7.92 1 12 C0.01 11.34 -0.98 10.68 -2 10 C-1.34 6.7 -0.68 3.4 0 0 Z " fill="#5885C0" transform="translate(61,55)"/>
</svg>
