<?xml version="1.0" encoding="UTF-8"?>
<svg version="1.1" xmlns="http://www.w3.org/2000/svg" width="96" height="96">
<path d="M0 0 C-1.86533468 1.93994807 -3.70127145 3.77658117 -5.859375 5.390625 C-7.76268337 6.83713936 -9.44557227 8.18127475 -11 10 C-11 13.28130534 -10.44781181 15.10437638 -9 18 C-8.4175767 24.29017161 -8.4175767 24.29017161 -11 27.4375 C-11.66 27.953125 -12.32 28.46875 -13 29 C-9.37 29 -5.74 29 -2 29 C-5.03643171 33.1405887 -8.17319642 33.81503922 -12.984375 34.62890625 C-18.63899777 35.32474714 -24.31285987 35.6886004 -30 36 C-30 36.33 -30 36.66 -30 37 C-29.34926514 36.98952637 -28.69853027 36.97905273 -28.02807617 36.96826172 C-25.0812567 36.92670165 -22.13449889 36.90067392 -19.1875 36.875 C-18.16333984 36.85824219 -17.13917969 36.84148438 -16.08398438 36.82421875 C-15.10107422 36.81777344 -14.11816406 36.81132813 -13.10546875 36.8046875 C-12.19949951 36.79421387 -11.29353027 36.78374023 -10.36010742 36.77294922 C-8 37 -8 37 -5 39 C-5 39.66 -5 40.32 -5 41 C-12.45527538 43.48509179 -20.26473327 44.85702252 -28 43 C-28 43.66 -28 44.32 -28 45 C-23.45823266 45.0841068 -19.24661981 44.91048273 -14.75 44.25 C-10.34924893 43.74222103 -10.34924893 43.74222103 -7.375 45.9375 C-6.694375 46.9584375 -6.694375 46.9584375 -6 48 C-11.62123893 50.85570962 -15.99284807 51.41412202 -22.25 51.25 C-23.05179688 51.24484375 -23.85359375 51.2396875 -24.6796875 51.234375 C-28.0186613 51.18970645 -30.81452367 51.06182544 -34 50 C-36.61098043 50.23870425 -36.61098043 50.23870425 -39 51 C-39.33 51.66 -39.66 52.32 -40 53 C-27.22808956 55.41223266 -9.77582901 58.33744466 2 51 C2.33 50.01 2.66 49.02 3 48 C4.32 48.33 5.64 48.66 7 49 C7.25 51.3125 7.25 51.3125 7 54 C-0.53617861 60.89569493 -11.98865216 60.471543 -21.5625 60.375 C-23.2940332 60.39240234 -23.2940332 60.39240234 -25.06054688 60.41015625 C-33.33799597 60.38198569 -40.98001998 59.67998668 -48 55 C-48.5 52.5625 -48.5 52.5625 -48 50 C-45.74735256 47.95853825 -44.0762954 47.00209396 -40.9921875 46.99609375 C-40.29351562 47.03863281 -39.59484375 47.08117187 -38.875 47.125 C-37.59625 47.08375 -36.3175 47.0425 -35 47 C-32.91783124 44.6450037 -32.91783124 44.6450037 -32 42 C-33.65 41.67 -35.3 41.34 -37 41 C-36.67 39.35 -36.34 37.7 -36 36 C-36.969375 35.5875 -37.93875 35.175 -38.9375 34.75 C-42 33 -42 33 -43 30.9375 C-43 29 -43 29 -41 27 C-37.89977395 25.92840012 -35.01015671 25.8946032 -31.75 25.9375 C-30.85796875 25.94652344 -29.9659375 25.95554687 -29.046875 25.96484375 C-28.37140625 25.97644531 -27.6959375 25.98804687 -27 26 C-29 28 -29 28 -32 29 C-27.05 29.33 -22.1 29.66 -17 30 C-14.51773659 23.78453321 -14.51773659 23.78453321 -15.71484375 20.8125 C-16.11832031 20.214375 -16.52179687 19.61625 -16.9375 19 C-18.66159145 15.96817932 -19.00028522 14.98317199 -19.0625 11.3125 C-17.33654139 5.93157023 -14.47303917 3.77669338 -9.5625 1.1875 C-6.10326968 0.03442323 -3.60987624 -0.26413729 0 0 Z " fill="#1464C0" transform="translate(66,22)"/>
<path d="M0 0 C0.66 0.33 1.32 0.66 2 1 C2 1.66 2 2.32 2 3 C1.195625 3.12375 0.39125 3.2475 -0.4375 3.375 C-1.7059375 3.684375 -1.7059375 3.684375 -3 4 C-3.33 4.66 -3.66 5.32 -4 6 C8.77191044 8.41223266 26.22417099 11.33744466 38 4 C38.33 3.01 38.66 2.02 39 1 C40.32 1.33 41.64 1.66 43 2 C43.25 4.3125 43.25 4.3125 43 7 C35.46382139 13.89569493 24.01134784 13.471543 14.4375 13.375 C13.28314453 13.38660156 12.12878906 13.39820312 10.93945312 13.41015625 C2.66200403 13.38198569 -4.98001998 12.67998668 -12 8 C-12.5 5.5625 -12.5 5.5625 -12 3 C-8.22669014 -0.31593897 -4.87770124 -0.3681284 0 0 Z " fill="#1464C0" transform="translate(30,69)"/>
<path d="M0 0 C0.66 0 1.32 0 2 0 C4.2970297 6.89108911 4.2970297 6.89108911 3.0625 11.5 C1.18216562 15.19321282 -1.57243214 18.10506839 -4.34375 21.15234375 C-7.97963439 25.14747424 -7.97963439 25.14747424 -8.9375 30.25 C-7.560523 34.28913253 -5.809023 38.13794626 -4 42 C-9.8384532 40.4545271 -13.2291377 36.02571175 -16.1796875 30.984375 C-17.53536593 27.70492432 -16.873954 25.37928882 -16 22 C-13.36989103 18.17438695 -10.39628472 15.43999507 -6.875 12.4375 C-3.88705958 9.87801896 -1.59065672 7.67839366 0 4 C0 2.68 0 1.36 0 0 Z " fill="#F44234" transform="translate(52,8)"/>
<path d="M0 0 C-1.86533468 1.93994807 -3.70127145 3.77658117 -5.859375 5.390625 C-7.76268337 6.83713936 -9.44557227 8.18127475 -11 10 C-11 13.28130534 -10.44781181 15.10437638 -9 18 C-8.42420682 24.21856639 -8.42420682 24.21856639 -10.75 27.375 C-12.92779828 28.94785432 -14.36638744 29.62376963 -17 30 C-16.5875 29.01 -16.175 28.02 -15.75 27 C-15.02120071 24.54092213 -14.8371849 23.41064696 -15.79296875 21 C-16.17066406 20.34 -16.54835937 19.68 -16.9375 19 C-18.66159145 15.96817932 -19.00028522 14.98317199 -19.0625 11.3125 C-17.33654139 5.93157023 -14.47303917 3.77669338 -9.5625 1.1875 C-6.10326968 0.03442323 -3.60987624 -0.26413729 0 0 Z " fill="#F44235" transform="translate(66,22)"/>
<path d="M0 0 C0.495 1.98 0.495 1.98 1 4 C-7.2721911 10.54881796 -14.85380093 11.38862274 -25.1875 11.375 C-26.19820557 11.37628906 -27.20891113 11.37757812 -28.25024414 11.37890625 C-36.1112542 11.26803697 -42.72486264 10.12789015 -50 7 C-46.35891022 5.73962277 -43.75411714 6.35926294 -40 7 C-25.68740325 7.92580959 -12.46789175 7.86852481 0 0 Z " fill="#1363C0" transform="translate(77,77)"/>
<path d="M0 0 C2.4702708 2.4702708 2.76871663 3.53074952 3 7 C1.98812015 10.84514342 1.3493801 13.01531722 -1.87890625 15.37109375 C-3.92257785 16.45879374 -5.76594967 17.38743781 -8 18 C-8.99 17.67 -9.98 17.34 -11 17 C-10.48308594 16.48050781 -9.96617188 15.96101563 -9.43359375 15.42578125 C-8.77488281 14.72839844 -8.11617188 14.03101563 -7.4375 13.3125 C-6.77621094 12.62800781 -6.11492187 11.94351563 -5.43359375 11.23828125 C-3.70435545 9.04992295 -3.70435545 9.04992295 -4.28515625 6.23046875 C-4.52105469 5.49441406 -4.75695312 4.75835937 -5 4 C-6.32 3.67 -7.64 3.34 -9 3 C-9 2.34 -9 1.68 -9 1 C-5.98675805 -0.50662097 -3.31713623 -0.17770373 0 0 Z " fill="#1363C1" transform="translate(73,48)"/>
</svg>
