<?xml version="1.0" encoding="UTF-8"?>
<!DOCTYPE svg PUBLIC "-//W3C//DTD SVG 1.1//EN" "http://www.w3.org/Graphics/SVG/1.1/DTD/svg11.dtd">
<svg xmlns="http://www.w3.org/2000/svg" version="1.1" width="230px" height="230px" style="shape-rendering:geometricPrecision; text-rendering:geometricPrecision; image-rendering:optimizeQuality; fill-rule:evenodd; clip-rule:evenodd" xmlns:xlink="http://www.w3.org/1999/xlink">
<g><path style="opacity:0.936" fill="#010202" d="M 97.5,-0.5 C 108.5,-0.5 119.5,-0.5 130.5,-0.5C 134.52,2.3583 137.686,6.02497 140,10.5C 140.944,17.829 141.777,25.1623 142.5,32.5C 145.812,33.4845 149.145,34.4845 152.5,35.5C 157.949,31.8925 163.283,28.0592 168.5,24C 176.243,20.268 183.577,20.9346 190.5,26C 195.039,31.5023 199.872,36.669 205,41.5C 208.333,47.8333 208.333,54.1667 205,60.5C 201.715,65.4537 198.048,70.1203 194,74.5C 194.092,78.6206 194.925,82.6206 196.5,86.5C 203.861,87.0535 211.194,87.8869 218.5,89C 222.975,91.3138 226.642,94.4804 229.5,98.5C 229.5,108.833 229.5,119.167 229.5,129.5C 227.434,133.403 224.434,136.57 220.5,139C 212.59,140.758 204.59,141.924 196.5,142.5C 196.245,145.016 195.411,147.35 194,149.5C 193.9,154.958 196.233,159.291 201,162.5C 209.167,171.966 209.5,181.633 202,191.5C 197.147,195.355 192.647,199.522 188.5,204C 182.032,208.237 175.365,208.57 168.5,205C 163.546,201.715 158.88,198.048 154.5,194C 150.607,193.6 146.94,194.433 143.5,196.5C 141.819,204.444 140.319,212.444 139,220.5C 136.57,224.434 133.403,227.434 129.5,229.5C 119.167,229.5 108.833,229.5 98.5,229.5C 94.4804,226.642 91.3138,222.975 89,218.5C 87.8869,211.194 87.0535,203.861 86.5,196.5C 82.6206,194.925 78.6206,194.092 74.5,194C 68.6945,199.145 62.3611,203.478 55.5,207C 48.6302,208.376 42.6302,206.709 37.5,202C 34.3333,197.5 30.5,193.667 26,190.5C 20.9346,183.577 20.268,176.243 24,168.5C 28.0592,163.283 31.8925,157.949 35.5,152.5C 34.4845,149.145 33.4845,145.812 32.5,142.5C 25.175,141.668 17.8417,140.834 10.5,140C 6.02497,137.686 2.3583,134.52 -0.5,130.5C -0.5,119.5 -0.5,108.5 -0.5,97.5C 2.66699,94.502 6.00033,91.6686 9.5,89C 17.1418,87.8911 24.8085,87.0578 32.5,86.5C 33.4845,83.1881 34.4845,79.8548 35.5,76.5C 31.8605,71.0272 28.0271,65.6938 24,60.5C 20.178,52.7228 20.8446,45.3895 26,38.5C 30.8333,35 35,30.8333 38.5,26C 45.3895,20.8446 52.7228,20.178 60.5,24C 65.6938,28.0271 71.0272,31.8605 76.5,35.5C 79.8548,34.4845 83.1881,33.4845 86.5,32.5C 87.0027,24.7989 87.836,17.1323 89,9.5C 91.6686,6.00033 94.502,2.66699 97.5,-0.5 Z"/></g>
<g><path style="opacity:1" fill="#8ea1ab" d="M 104.5,13.5 C 111.175,13.3337 117.842,13.5004 124.5,14C 126.137,23.1176 127.637,32.2843 129,41.5C 130.543,43.3783 132.376,44.8783 134.5,46C 140.248,46.873 145.581,48.873 150.5,52C 153.303,52.755 155.97,52.4217 158.5,51C 164.123,47.0454 169.457,42.7121 174.5,38C 176.044,36.8129 177.711,36.4795 179.5,37C 184.3,41.1217 188.3,45.7884 191.5,51C 191.333,51.8333 191.167,52.6667 191,53.5C 186.333,59.5 181.667,65.5 177,71.5C 176.333,73.8333 176.333,76.1667 177,78.5C 179.925,84.275 182.258,90.275 184,96.5C 185.167,97.6667 186.333,98.8333 187.5,100C 196.473,100.921 205.307,102.421 214,104.5C 214.667,111.167 214.667,117.833 214,124.5C 204.761,125.439 195.595,126.939 186.5,129C 182.948,135.658 179.781,142.491 177,149.5C 176.21,152.634 176.543,155.634 178,158.5C 182.333,164.167 186.667,169.833 191,175.5C 191.667,176.833 191.667,178.167 191,179.5C 187.564,184.773 183.064,188.773 177.5,191.5C 170.387,186.896 163.387,182.063 156.5,177C 147.518,178.088 138.851,180.754 130.5,185C 129.299,185.903 128.465,187.069 128,188.5C 126.975,197.069 125.808,205.569 124.5,214C 117.833,214.667 111.167,214.667 104.5,214C 102.726,205.257 101.226,196.424 100,187.5C 98.8333,186.333 97.6667,185.167 96.5,184C 90.275,182.258 84.275,179.925 78.5,177C 76.1667,176.333 73.8333,176.333 71.5,177C 65.5,181.667 59.5,186.333 53.5,191C 51.8333,191.667 50.1667,191.667 48.5,191C 44.1192,186.955 40.1192,182.622 36.5,178C 41.6521,170.844 46.8188,163.677 52,156.5C 52.6667,154.5 52.6667,152.5 52,150.5C 48.6785,144.866 46.3452,138.866 45,132.5C 43.4571,130.622 41.6238,129.122 39.5,128C 32.1767,127.223 24.8434,126.556 17.5,126C 16.2341,125.691 15.0674,125.191 14,124.5C 13.3333,117.833 13.3333,111.167 14,104.5C 23.3956,102.184 32.8956,100.35 42.5,99C 44.9679,96.7717 46.1346,93.9383 46,90.5C 47.4728,86.2211 49.4728,82.2211 52,78.5C 52.6667,76.1667 52.6667,73.8333 52,71.5C 47,65.1667 42,58.8333 37,52.5C 36.3333,51.5 36.3333,50.5 37,49.5C 41.3777,44.7865 46.0444,40.4532 51,36.5C 58.0849,41.297 64.9182,46.4637 71.5,52C 73.8333,52.6667 76.1667,52.6667 78.5,52C 83.9609,48.2906 89.9609,45.9573 96.5,45C 98.0488,43.786 99.2155,42.286 100,40.5C 100.958,31.3506 102.458,22.3506 104.5,13.5 Z"/></g>
<g><path style="opacity:1" fill="#040505" d="M 107.5,66.5 C 134.827,65.3544 152.66,77.6878 161,103.5C 164.678,123.81 158.512,140.31 142.5,153C 130.696,161.108 117.696,163.775 103.5,161C 82.9618,155.125 70.7951,141.625 67,120.5C 65.859,91.4791 79.359,73.4791 107.5,66.5 Z"/></g>
<g><path style="opacity:1" fill="#717171" d="M 121.5,81.5 C 115.464,81.3599 109.464,81.6932 103.5,82.5C 106.695,80.9704 110.195,80.3037 114,80.5C 116.69,80.5029 119.19,80.8362 121.5,81.5 Z"/></g>
<g><path style="opacity:1" fill="#fcfcfc" d="M 121.5,81.5 C 143.886,89.2694 151.719,104.603 145,127.5C 135.74,144.705 121.573,150.871 102.5,146C 92.6233,141.755 85.7899,134.589 82,124.5C 81.5045,122.527 81.3379,120.527 81.5,118.5C 81.4126,113.463 81.746,108.463 82.5,103.5C 86.5,93.5 93.5,86.5 103.5,82.5C 109.464,81.6932 115.464,81.3599 121.5,81.5 Z"/></g>
<g><path style="opacity:1" fill="#767676" d="M 82.5,103.5 C 81.746,108.463 81.4126,113.463 81.5,118.5C 80.838,116.696 80.5046,114.696 80.5,112.5C 80.3425,109.186 81.0092,106.186 82.5,103.5 Z"/></g>
</svg>
